<svg width="54" height="111" viewBox="0 0 54 111" fill="none" xmlns="http://www.w3.org/2000/svg">
<path d="M20.8609 37.448H32.5729V41H16.4929V7.544H20.8609V37.448ZM29.04 65.24C28.112 63.288 26.768 61.784 25.008 60.728C23.248 59.64 21.2 59.096 18.864 59.096C16.528 59.096 14.416 59.64 12.528 60.728C10.672 61.784 9.2 63.32 8.112 65.336C7.056 67.32 6.528 69.624 6.528 72.248C6.528 74.872 7.056 77.176 8.112 79.16C9.2 81.144 10.672 82.68 12.528 83.768C14.416 84.824 16.528 85.352 18.864 85.352C22.128 85.352 24.816 84.376 26.928 82.424C29.04 80.472 30.272 77.832 30.624 74.504H17.28V70.952H35.28V74.312C35.024 77.064 34.16 79.592 32.688 81.896C31.216 84.168 29.28 85.976 26.88 87.32C24.48 88.632 21.808 89.288 18.864 89.288C15.76 89.288 12.928 88.568 10.368 87.128C7.808 85.656 5.776 83.624 4.272 81.032C2.8 78.44 2.064 75.512 2.064 72.248C2.064 68.984 2.8 66.056 4.272 63.464C5.776 60.84 7.808 58.808 10.368 57.368C12.928 55.896 15.76 55.16 18.864 55.16C22.416 55.16 25.552 56.04 28.272 57.8C31.024 59.56 33.024 62.04 34.272 65.24H29.04Z" fill="black"/>
<path d="M20.8609 37.448H19.8609V38.448H20.8609V37.448ZM32.5729 37.448H33.5729V36.448H32.5729V37.448ZM32.5729 41V42H33.5729V41H32.5729ZM16.4929 41H15.4929V42H16.4929V41ZM16.4929 7.544V6.544H15.4929V7.544H16.4929ZM20.8609 7.544H21.8609V6.544H20.8609V7.544ZM20.8609 38.448H32.5729V36.448H20.8609V38.448ZM31.5729 37.448V41H33.5729V37.448H31.5729ZM32.5729 40H16.4929V42H32.5729V40ZM17.4929 41V7.544H15.4929V41H17.4929ZM16.4929 8.544H20.8609V6.544H16.4929V8.544ZM19.8609 7.544V37.448H21.8609V7.544H19.8609ZM29.04 65.24L28.1369 65.6694L28.4082 66.24H29.04V65.24ZM25.008 60.728L24.4821 61.5787L24.4935 61.5855L25.008 60.728ZM12.528 60.728L13.0225 61.5972L13.0273 61.5944L12.528 60.728ZM8.112 65.336L7.23196 64.8611L7.22925 64.8661L8.112 65.336ZM8.112 79.16L7.22919 79.6299L7.23519 79.6408L8.112 79.16ZM12.528 83.768L12.0223 84.6307L12.031 84.6358L12.0398 84.6408L12.528 83.768ZM26.928 82.424L27.6067 83.1584L26.928 82.424ZM30.624 74.504L31.6185 74.6092L31.7353 73.504H30.624V74.504ZM17.28 74.504H16.28V75.504H17.28V74.504ZM17.28 70.952V69.952H16.28V70.952H17.28ZM35.28 70.952H36.28V69.952H35.28V70.952ZM35.28 74.312L36.2757 74.4046L36.28 74.3584V74.312H35.28ZM32.688 81.896L33.5273 82.4398L33.5307 82.4344L32.688 81.896ZM26.88 87.32L27.3597 88.1975L27.3686 88.1925L26.88 87.32ZM10.368 87.128L9.86951 87.9949L9.87774 87.9996L10.368 87.128ZM4.272 81.032L3.4024 81.5258L3.40706 81.5339L4.272 81.032ZM4.272 63.464L3.4044 62.9667L3.40244 62.9702L4.272 63.464ZM10.368 57.368L10.8583 58.2396L10.8665 58.2349L10.368 57.368ZM28.272 57.8L27.7287 58.6396L27.7332 58.6424L28.272 57.8ZM34.272 65.24V66.24H35.7354L35.2037 64.8767L34.272 65.24ZM29.9431 64.8106C28.9353 62.6907 27.4606 61.0334 25.5225 59.8705L24.4935 61.5855C26.0754 62.5346 27.2887 63.8853 28.1369 65.6694L29.9431 64.8106ZM25.5338 59.8774C23.5961 58.6796 21.3612 58.096 18.864 58.096V60.096C21.0388 60.096 22.8999 60.6004 24.4822 61.5786L25.5338 59.8774ZM18.864 58.096C16.3658 58.096 14.0795 58.6798 12.0287 59.8616L13.0273 61.5944C14.7525 60.6002 16.6902 60.096 18.864 60.096V58.096ZM12.0335 59.8588C10.0026 61.0143 8.40224 62.6926 7.23198 64.8611L8.99202 65.8109C9.99776 63.9474 11.3414 62.5537 13.0225 61.5972L12.0335 59.8588ZM7.22925 64.8661C6.0843 67.0173 5.528 69.4877 5.528 72.248H7.528C7.528 69.7603 8.0277 67.6227 8.99475 65.8058L7.22925 64.8661ZM5.528 72.248C5.528 75.0083 6.0843 77.4787 7.22925 79.6299L8.99475 78.6901C8.0277 76.8733 7.528 74.7357 7.528 72.248H5.528ZM7.23519 79.6408C8.40541 81.7748 10.0021 83.4465 12.0223 84.6307L13.0337 82.9053C11.3419 81.9135 9.99459 80.5132 8.98881 78.6792L7.23519 79.6408ZM12.0398 84.6408C14.0888 85.7868 16.3711 86.352 18.864 86.352V84.352C16.6849 84.352 14.7432 83.8612 13.0162 82.8952L12.0398 84.6408ZM18.864 86.352C22.3431 86.352 25.2848 85.3044 27.6067 83.1584L26.2493 81.6896C24.3472 83.4476 21.9129 84.352 18.864 84.352V86.352ZM27.6067 83.1584C29.9254 81.0154 31.2454 78.1364 31.6185 74.6092L29.6295 74.3988C29.2986 77.5275 28.1546 79.9286 26.2493 81.6896L27.6067 83.1584ZM30.624 73.504H17.28V75.504H30.624V73.504ZM18.28 74.504V70.952H16.28V74.504H18.28ZM17.28 71.952H35.28V69.952H17.28V71.952ZM34.28 70.952V74.312H36.28V70.952H34.28ZM34.2843 74.2194C34.0429 76.8145 33.2305 79.1894 31.8453 81.3576L33.5307 82.4344C35.0895 79.9946 36.0051 77.3135 36.2757 74.4046L34.2843 74.2194ZM31.8487 81.3523C30.4666 83.4855 28.6519 85.1816 26.3914 86.4475L27.3686 88.1925C29.9081 86.7704 31.9654 84.8505 33.5273 82.4397L31.8487 81.3523ZM26.4003 86.4426C24.1586 87.6681 21.6535 88.288 18.864 88.288V90.288C21.9625 90.288 24.8014 89.5959 27.3597 88.1974L26.4003 86.4426ZM18.864 88.288C15.9216 88.288 13.26 87.6074 10.8583 86.2564L9.87774 87.9996C12.596 89.5286 15.5984 90.288 18.864 90.288V88.288ZM10.8665 86.2611C8.46087 84.8779 6.55428 82.9728 5.13694 80.5301L3.40706 81.5339C4.99772 84.2752 7.15513 86.4341 9.86953 87.9949L10.8665 86.2611ZM5.14156 80.5382C3.76303 78.1108 3.064 75.3558 3.064 72.248H1.064C1.064 75.6682 1.83697 78.7692 3.40244 81.5258L5.14156 80.5382ZM3.064 72.248C3.064 69.1402 3.76303 66.3852 5.14156 63.9578L3.40244 62.9702C1.83697 65.7268 1.064 68.8278 1.064 72.248H3.064ZM5.13959 63.9613C6.55668 61.4889 8.46033 59.5884 10.8583 58.2396L9.87774 56.4964C7.15567 58.0276 4.99533 60.1911 3.40441 62.9667L5.13959 63.9613ZM10.8665 58.2349C13.267 56.8546 15.9256 56.16 18.864 56.16V54.16C15.5944 54.16 12.589 54.9374 9.86953 56.5011L10.8665 58.2349ZM18.864 56.16C22.2425 56.16 25.1861 56.9943 27.7288 58.6396L28.8153 56.9604C25.9179 55.0857 22.5895 54.16 18.864 54.16V56.16ZM27.7332 58.6424C30.2973 60.2823 32.1651 62.5898 33.3403 65.6033L35.2037 64.8767C33.8829 61.4902 31.7507 58.8377 28.8108 56.9576L27.7332 58.6424ZM34.272 64.24H29.04V66.24H34.272V64.24Z" fill="#787878"/>
<path d="M27.368 54.176L26.8695 55.0429L26.8777 55.0476L27.368 54.176ZM21.272 48.08L20.3999 48.5693L20.4034 48.5756L20.4071 48.5819L21.272 48.08ZM21.272 30.464L20.4044 29.9667L20.4024 29.9702L21.272 30.464ZM27.368 24.368L27.8583 25.2396L27.8665 25.2349L27.368 24.368ZM44.408 24.368L43.9095 25.2349L43.9177 25.2396L44.408 24.368ZM50.456 30.416L51.3256 29.9222L50.456 30.416ZM44.408 54.176L44.8983 55.0476L44.9065 55.0429L44.408 54.176ZM42.152 50.912L41.6527 50.0455L41.6463 50.0493L42.152 50.912ZM46.568 46.256L45.6879 45.781L45.6822 45.792L46.568 46.256ZM46.568 32.24L45.6822 32.704L45.6866 32.7125L45.6912 32.7208L46.568 32.24ZM42.2 27.584L41.6943 28.4467L42.2 27.584ZM29.528 27.584L30.0337 28.4467V28.4467L29.528 27.584ZM25.112 32.24L24.232 31.7651L24.2293 31.7701L25.112 32.24ZM25.112 46.256L24.2261 46.72L24.232 46.7309L25.112 46.256ZM29.528 50.912L29.0223 51.7747L29.0287 51.7784L29.528 50.912ZM35.864 55.336C32.9216 55.336 30.26 54.6554 27.8583 53.3044L26.8777 55.0476C29.596 56.5766 32.5984 57.336 35.864 57.336V55.336ZM27.8665 53.3091C25.4609 51.9259 23.5543 50.0208 22.1369 47.5781L20.4071 48.5819C21.9977 51.3232 24.1551 53.4821 26.8695 55.0429L27.8665 53.3091ZM22.1441 47.5907C20.763 45.1287 20.064 42.3556 20.064 39.248H18.064C18.064 42.6684 18.837 45.7833 20.3999 48.5693L22.1441 47.5907ZM20.064 39.248C20.064 36.1402 20.763 33.3852 22.1416 30.9578L20.4024 29.9702C18.837 32.7268 18.064 35.8278 18.064 39.248H20.064ZM22.1396 30.9613C23.5567 28.4889 25.4603 26.5884 27.8583 25.2396L26.8777 23.4964C24.1557 25.0276 21.9953 27.1911 20.4044 29.9667L22.1396 30.9613ZM27.8665 25.2349C30.267 23.8546 32.9256 23.16 35.864 23.16V21.16C32.5944 21.16 29.589 21.9374 26.8695 23.5011L27.8665 25.2349ZM35.864 23.16C38.8363 23.16 41.5106 23.8555 43.9095 25.2349L44.9065 23.5011C42.1854 21.9365 39.1637 21.16 35.864 21.16V23.16ZM43.9177 25.2396C46.3169 26.5891 48.2028 28.4734 49.5864 30.9098L51.3256 29.9222C49.7652 27.1746 47.6191 25.0269 44.8983 23.4964L43.9177 25.2396ZM49.5864 30.9098C50.9641 33.3358 51.664 36.1064 51.664 39.248H53.664C53.664 35.7976 52.8919 32.6802 51.3256 29.9222L49.5864 30.9098ZM51.664 39.248C51.664 42.3896 50.9641 45.1602 49.5864 47.5862L51.3256 48.5738C52.8919 45.8158 53.664 42.6984 53.664 39.248H51.664ZM49.5864 47.5862C48.2017 50.0245 46.3132 51.927 43.9095 53.3091L44.9065 55.0429C47.6228 53.481 49.7663 51.3195 51.3256 48.5738L49.5864 47.5862ZM43.9177 53.3044C41.5176 54.6545 38.8403 55.336 35.864 55.336V57.336C39.1597 57.336 42.1784 56.5775 44.8983 55.0476L43.9177 53.3044ZM35.864 53.544C38.362 53.544 40.6353 52.9602 42.6577 51.7747L41.6463 50.0493C39.9567 51.0398 38.038 51.544 35.864 51.544V53.544ZM42.6513 51.7784C44.7112 50.5914 46.3139 48.8963 47.4538 46.72L45.6822 45.792C44.7101 47.6477 43.3688 49.0566 41.6527 50.0456L42.6513 51.7784ZM47.448 46.7309C48.6265 44.5473 49.2 42.0432 49.2 39.248H47.2C47.2 41.7648 46.6855 43.9327 45.688 45.7811L47.448 46.7309ZM49.2 39.248C49.2 36.4235 48.6276 33.916 47.4448 31.7592L45.6912 32.7208C46.6844 34.532 47.2 36.6965 47.2 39.248H49.2ZM47.4538 31.776C46.3162 29.6042 44.7327 27.9096 42.7057 26.7213L41.6943 28.4467C43.3793 29.4344 44.7078 30.8438 45.6822 32.704L47.4538 31.776ZM42.7057 26.7213C40.6812 25.5345 38.3914 24.952 35.864 24.952V26.952C38.0726 26.952 40.0068 27.4575 41.6943 28.4467L42.7057 26.7213ZM35.864 24.952C33.3366 24.952 31.0468 25.5345 29.0223 26.7213L30.0337 28.4467C31.7212 27.4575 33.6554 26.952 35.864 26.952V24.952ZM29.0223 26.7213C26.998 27.9079 25.401 29.5989 24.232 31.7651L25.992 32.7149C26.999 30.8491 28.346 29.4361 30.0337 28.4467L29.0223 26.7213ZM24.2293 31.7701C23.0825 33.9246 22.528 36.4281 22.528 39.248H24.528C24.528 36.6919 25.0295 34.5234 25.9947 32.7098L24.2293 31.7701ZM22.528 39.248C22.528 42.0386 23.0836 44.5387 24.2262 46.72L25.9978 45.792C25.0284 43.9413 24.528 41.7694 24.528 39.248H22.528ZM24.232 46.7309C25.401 48.8971 26.998 50.5881 29.0223 51.7747L30.0337 50.0493C28.346 49.0599 26.999 47.6469 25.992 45.7811L24.232 46.7309ZM29.0287 51.7784C31.0795 52.9602 33.3658 53.544 35.864 53.544V51.544C33.6902 51.544 31.7525 51.0398 30.0273 50.0456L29.0287 51.7784ZM27.368 102.176L26.8695 103.043L26.8777 103.048L27.368 102.176ZM21.272 96.08L20.3999 96.5693L20.4034 96.5756L20.4071 96.5819L21.272 96.08ZM21.272 78.464L20.4044 77.9667L20.4024 77.9702L21.272 78.464ZM27.368 72.368L27.8583 73.2396L27.8665 73.2349L27.368 72.368ZM44.408 72.368L43.9095 73.2349L43.9177 73.2396L44.408 72.368ZM50.456 78.416L51.3256 77.9222L50.456 78.416ZM44.408 102.176L44.8983 103.048L44.9065 103.043L44.408 102.176ZM42.152 98.912L41.6527 98.0455L41.6463 98.0493L42.152 98.912ZM46.568 94.256L45.6879 93.781L45.6822 93.792L46.568 94.256ZM46.568 80.24L45.6822 80.704L45.6866 80.7125L45.6912 80.7208L46.568 80.24ZM42.2 75.584L41.6943 76.4467L42.2 75.584ZM29.528 75.584L30.0337 76.4467L29.528 75.584ZM25.112 80.24L24.232 79.7651L24.2293 79.7701L25.112 80.24ZM25.112 94.256L24.2261 94.72L24.232 94.7309L25.112 94.256ZM29.528 98.912L29.0223 99.7747L29.0287 99.7784L29.528 98.912ZM35.864 103.336C32.9216 103.336 30.26 102.655 27.8583 101.304L26.8777 103.048C29.596 104.577 32.5984 105.336 35.864 105.336V103.336ZM27.8665 101.309C25.4609 99.9259 23.5543 98.0208 22.1369 95.5781L20.4071 96.5819C21.9977 99.3232 24.1551 101.482 26.8695 103.043L27.8665 101.309ZM22.1441 95.5908C20.763 93.1287 20.064 90.3556 20.064 87.248H18.064C18.064 90.6684 18.837 93.7833 20.3999 96.5693L22.1441 95.5908ZM20.064 87.248C20.064 84.1402 20.763 81.3852 22.1416 78.9578L20.4024 77.9702C18.837 80.7268 18.064 83.8278 18.064 87.248H20.064ZM22.1396 78.9613C23.5567 76.4889 25.4603 74.5884 27.8583 73.2396L26.8777 71.4964C24.1557 73.0276 21.9953 75.1911 20.4044 77.9667L22.1396 78.9613ZM27.8665 73.2349C30.267 71.8546 32.9256 71.16 35.864 71.16V69.16C32.5944 69.16 29.589 69.9374 26.8695 71.5011L27.8665 73.2349ZM35.864 71.16C38.8363 71.16 41.5106 71.8555 43.9095 73.2349L44.9065 71.5011C42.1854 69.9365 39.1637 69.16 35.864 69.16V71.16ZM43.9177 73.2396C46.3169 74.5891 48.2028 76.4734 49.5864 78.9098L51.3256 77.9222C49.7652 75.1746 47.6191 73.0269 44.8983 71.4964L43.9177 73.2396ZM49.5864 78.9098C50.9641 81.3358 51.664 84.1064 51.664 87.248H53.664C53.664 83.7976 52.8919 80.6802 51.3256 77.9222L49.5864 78.9098ZM51.664 87.248C51.664 90.3896 50.9641 93.1602 49.5864 95.5862L51.3256 96.5738C52.8919 93.8158 53.664 90.6984 53.664 87.248H51.664ZM49.5864 95.5862C48.2017 98.0245 46.3132 99.927 43.9095 101.309L44.9065 103.043C47.6228 101.481 49.7663 99.3195 51.3256 96.5738L49.5864 95.5862ZM43.9177 101.304C41.5176 102.655 38.8403 103.336 35.864 103.336V105.336C39.1597 105.336 42.1784 104.577 44.8983 103.048L43.9177 101.304ZM35.864 101.544C38.362 101.544 40.6353 100.96 42.6577 99.7747L41.6463 98.0493C39.9567 99.0397 38.038 99.544 35.864 99.544V101.544ZM42.6513 99.7784C44.7112 98.5914 46.3139 96.8963 47.4538 94.72L45.6822 93.792C44.7101 95.6477 43.3688 97.0566 41.6527 98.0456L42.6513 99.7784ZM47.448 94.7309C48.6265 92.5473 49.2 90.0432 49.2 87.248H47.2C47.2 89.7648 46.6855 91.9327 45.688 93.7811L47.448 94.7309ZM49.2 87.248C49.2 84.4235 48.6276 81.916 47.4448 79.7592L45.6912 80.7208C46.6844 82.532 47.2 84.6965 47.2 87.248H49.2ZM47.4538 79.776C46.3162 77.6042 44.7327 75.9096 42.7057 74.7213L41.6943 76.4467C43.3793 77.4344 44.7078 78.8438 45.6822 80.704L47.4538 79.776ZM42.7057 74.7213C40.6812 73.5345 38.3914 72.952 35.864 72.952V74.952C38.0726 74.952 40.0068 75.4575 41.6943 76.4467L42.7057 74.7213ZM35.864 72.952C33.3366 72.952 31.0468 73.5345 29.0223 74.7213L30.0337 76.4467C31.7212 75.4575 33.6554 74.952 35.864 74.952V72.952ZM29.0223 74.7213C26.998 75.9079 25.401 77.5989 24.232 79.7651L25.992 80.7149C26.999 78.8491 28.346 77.4361 30.0337 76.4467L29.0223 74.7213ZM24.2293 79.7701C23.0825 81.9246 22.528 84.4281 22.528 87.248H24.528C24.528 84.6919 25.0295 82.5234 25.9947 80.7098L24.2293 79.7701ZM22.528 87.248C22.528 90.0386 23.0836 92.5387 24.2262 94.72L25.9978 93.792C25.0284 91.9413 24.528 89.7694 24.528 87.248H22.528ZM24.232 94.7309C25.401 96.8971 26.998 98.5881 29.0223 99.7747L30.0337 98.0493C28.346 97.0599 26.999 95.6469 25.992 93.7811L24.232 94.7309ZM29.0287 99.7784C31.0795 100.96 33.3658 101.544 35.864 101.544V99.544C33.6902 99.544 31.7525 99.0398 30.0273 98.0456L29.0287 99.7784Z" fill="#FF7A00"/>
</svg>
